<svg width="12" height="13" viewBox="0 0 12 13" fill="none" xmlns="http://www.w3.org/2000/svg">
<g clip-path="url(#clip0_3231_528)">
<path d="M10.8097 11.2826C10.8097 10.8611 10.8097 10.4672 10.8097 10.0739C10.8097 8.8971 10.8039 7.721 10.8141 6.54418C10.8184 6.04375 11.2776 5.73307 11.6672 5.98002C11.8229 6.07852 11.9808 6.31605 11.9829 6.49203C12.0061 8.2924 12.0025 10.0935 11.9938 11.8946C11.9916 12.3146 11.7563 12.4978 11.2703 12.4986C9.63724 12.5014 8.00489 12.5 6.37182 12.5C4.51063 12.5 2.65016 12.5007 0.788962 12.5C0.177736 12.5 0.00103143 12.3211 0.00103143 11.7034C0.000307231 8.23301 0.000307231 4.76337 0.00103143 1.29372C0.00175563 0.679602 0.179909 0.502173 0.795479 0.501448C2.50025 0.5 4.20501 0.498552 5.90978 0.502897C6.37472 0.504345 6.63905 0.781714 6.58546 1.18509C6.54273 1.50374 6.30809 1.68696 5.90978 1.68841C4.48093 1.69203 3.05281 1.68986 1.62396 1.69059C1.49506 1.69059 1.36687 1.69059 1.21479 1.69059V11.2826H10.8104H10.8097Z" fill="#49004B"/>
<path d="M10.8125 2.55094C10.6365 2.71896 10.5402 2.80731 10.4482 2.89928C9.16711 4.17967 7.88673 5.46078 6.60562 6.74189C6.52088 6.82662 6.43977 6.91787 6.34418 6.98812C6.10302 7.16482 5.75323 7.13296 5.55915 6.91353C5.34985 6.67671 5.34261 6.41383 5.51352 6.15384C5.5787 6.05535 5.67502 5.97714 5.75975 5.8924C7.04014 4.61129 8.32197 3.33091 9.60236 2.0498C9.69433 1.95782 9.78268 1.86151 9.94635 1.69059C9.4988 1.69059 9.1367 1.69132 8.77387 1.69059C8.61817 1.69059 8.46029 1.69784 8.30676 1.67756C8.00187 1.637 7.78389 1.37774 7.80489 1.07647C7.82662 0.764342 7.99391 0.525355 8.30966 0.518838C9.36482 0.497112 10.4207 0.497836 11.4759 0.515941C11.7902 0.52101 11.9864 0.742615 11.99 1.05982C12.0016 2.07949 12.0031 3.09916 11.9915 4.11884C11.9879 4.46935 11.7148 4.70689 11.3868 4.69747C11.0718 4.68806 10.8263 4.45776 10.8161 4.12029C10.8016 3.6329 10.8125 3.14479 10.8125 2.55167V2.55094Z" fill="#49004B"/>
</g>
<defs>
<clipPath id="clip0_3231_528">
<rect width="12" height="12" fill="white" transform="translate(0 0.5)"/>
</clipPath>
</defs>
</svg>